<?xml version="1.0" encoding="utf-8"?>
<svg version="1.1" xmlns:xlink="http://www.w3.org/1999/xlink" width="26px" height="26px" xmlns="http://www.w3.org/2000/svg">
  <g transform="matrix(1 0 0 1 -80 -183 )">
    <path d="M 93 183  C 100.28 183  106 188.72  106 196  C 106 203.28  100.28 209  93 209  C 85.72 209  80 203.28  80 196  C 80 188.72  85.72 183  93 183  Z " fill-rule="nonzero" fill="#ffffff" stroke="none" />
    <path d="M 93 183.5  C 100 183.5  105.5 189  105.5 196  C 105.5 203  100 208.5  93 208.5  C 86 208.5  80.5 203  80.5 196  C 80.5 189  86 183.5  93 183.5  Z " stroke-width="1" stroke="#797979" fill="none" />
  </g>
</svg>