<?xml version="1.0" encoding="utf-8"?>
<svg version="1.1" xmlns:xlink="http://www.w3.org/1999/xlink" width="26px" height="26px" xmlns="http://www.w3.org/2000/svg">
  <g transform="matrix(1 0 0 1 -53 -67 )">
    <path d="M 66 67  C 73.28 67  79 72.72  79 80  C 79 87.28  73.28 93  66 93  C 58.72 93  53 87.28  53 80  C 53 72.72  58.72 67  66 67  Z " fill-rule="nonzero" fill="#ffffff" stroke="none" />
    <path d="M 66 67.5  C 73 67.5  78.5 73  78.5 80  C 78.5 87  73 92.5  66 92.5  C 59 92.5  53.5 87  53.5 80  C 53.5 73  59 67.5  66 67.5  Z " stroke-width="1" stroke="#797979" fill="none" />
  </g>
</svg>