<?xml version="1.0" encoding="utf-8"?>
<svg version="1.1" xmlns:xlink="http://www.w3.org/1999/xlink" width="26px" height="26px" xmlns="http://www.w3.org/2000/svg">
  <g transform="matrix(1 0 0 1 -24 -67 )">
    <path d="M 37 67  C 44.28 67  50 72.72  50 80  C 50 87.28  44.28 93  37 93  C 29.72 93  24 87.28  24 80  C 24 72.72  29.72 67  37 67  Z " fill-rule="nonzero" fill="#f59a23" stroke="none" />
    <path d="M 37 67.5  C 44 67.5  49.5 73  49.5 80  C 49.5 87  44 92.5  37 92.5  C 30 92.5  24.5 87  24.5 80  C 24.5 73  30 67.5  37 67.5  Z " stroke-width="1" stroke="#797979" fill="none" />
  </g>
</svg>