<?xml version="1.0" encoding="utf-8"?>
<svg version="1.1" xmlns:xlink="http://www.w3.org/1999/xlink" width="26px" height="26px" xmlns="http://www.w3.org/2000/svg">
  <g transform="matrix(1 0 0 1 -71 -186 )">
    <path d="M 84 186  C 91.28 186  97 191.72  97 199  C 97 206.28  91.28 212  84 212  C 76.72 212  71 206.28  71 199  C 71 191.72  76.72 186  84 186  Z " fill-rule="nonzero" fill="#f59a23" stroke="none" />
    <path d="M 84 186.5  C 91 186.5  96.5 192  96.5 199  C 96.5 206  91 211.5  84 211.5  C 77 211.5  71.5 206  71.5 199  C 71.5 192  77 186.5  84 186.5  Z " stroke-width="1" stroke="#797979" fill="none" />
  </g>
</svg>