<?xml version="1.0" encoding="utf-8"?>
<svg version="1.1" xmlns:xlink="http://www.w3.org/1999/xlink" width="24px" height="24px" xmlns="http://www.w3.org/2000/svg">
  <defs>
    <mask fill="white" id="clip76">
      <path d="M 0 12  C 0 10.4552706889618  0.278997396770706 8.98663157704283  0.790349824890541 7.64072502966471  C 2.50352197360792 3.13156562228207  6.82472931103825 0  12 0  C 12.944562456836 0  13.8606747148563 0.104317395658015  14.7376728892626 0.302288302176038  C 20.099995036513 1.51276263098674  24 6.22456245683605  24 12  C 24 18.72  18.72 24  12 24  C 5.27999999999997 24  0 18.72  0 12  Z " fill-rule="evenodd" />
    </mask>
  </defs>
  <g transform="matrix(1 0 0 1 -721 -126 )">
    <path d="M 0 12  C 0 10.4552706889618  0.278997396770706 8.98663157704283  0.790349824890541 7.64072502966471  C 2.50352197360792 3.13156562228207  6.82472931103825 0  12 0  C 12.944562456836 0  13.8606747148563 0.104317395658015  14.7376728892626 0.302288302176038  C 20.099995036513 1.51276263098674  24 6.22456245683605  24 12  C 24 18.72  18.72 24  12 24  C 5.27999999999997 24  0 18.72  0 12  Z " fill-rule="nonzero" fill="#ffffff" stroke="none" transform="matrix(1 0 0 1 721 126 )" />
    <path d="M 0 12  C 0 10.4552706889618  0.278997396770706 8.98663157704283  0.790349824890541 7.64072502966471  C 2.50352197360792 3.13156562228207  6.82472931103825 0  12 0  C 12.944562456836 0  13.8606747148563 0.104317395658015  14.7376728892626 0.302288302176038  C 20.099995036513 1.51276263098674  24 6.22456245683605  24 12  C 24 18.72  18.72 24  12 24  C 5.27999999999997 24  0 18.72  0 12  Z " stroke-width="2" stroke="#797979" fill="none" transform="matrix(1 0 0 1 721 126 )" mask="url(#clip76)" />
  </g>
</svg>