<?xml version="1.0" encoding="utf-8"?>
<svg version="1.1" xmlns:xlink="http://www.w3.org/1999/xlink" width="68px" height="58px" xmlns="http://www.w3.org/2000/svg">
  <defs>
    <mask fill="white" id="clip76">
      <path d="M 47 58  L 68 29  L 47 0  L 47 16  L 0 16  L 0 42  L 47 42  L 47 58  Z " fill-rule="evenodd" />
    </mask>
  </defs>
  <g transform="matrix(1 0 0 1 -192 -537 )">
    <path d="M 47 58  L 68 29  L 47 0  L 47 16  L 0 16  L 0 42  L 47 42  L 47 58  Z " fill-rule="nonzero" fill="#ffffff" stroke="none" fill-opacity="0" transform="matrix(1 0 0 1 192 537 )" />
    <path d="M 47 58  L 68 29  L 47 0  L 47 16  L 0 16  L 0 42  L 47 42  L 47 58  Z " stroke-width="2" stroke="#797979" fill="none" transform="matrix(1 0 0 1 192 537 )" mask="url(#clip76)" />
  </g>
</svg>