<?xml version="1.0" encoding="utf-8"?>
<svg version="1.1" xmlns:xlink="http://www.w3.org/1999/xlink" width="44px" height="41px" xmlns="http://www.w3.org/2000/svg">
  <defs>
    <mask fill="white" id="clip5135">
      <path d="M 0 20.5  C 0 9.02000000000001  9.68000000000001 0  22 0  C 34.32 0  44 9.02000000000001  44 20.5  C 44 31.5756771548061  34.9898471773746 40.3615840674987  23.2915905520074 40.9667205150043  C 22.8645401480937 40.9888113078982  22.4339074436227 41  22 41  C 9.68000000000001 41  0 31.98  0 20.5  Z " fill-rule="evenodd" />
    </mask>
  </defs>
  <g transform="matrix(1 0 0 1 -358 -154 )">
    <path d="M 0 20.5  C 0 9.02000000000001  9.68000000000001 0  22 0  C 34.32 0  44 9.02000000000001  44 20.5  C 44 31.5756771548061  34.9898471773746 40.3615840674987  23.2915905520074 40.9667205150043  C 22.8645401480937 40.9888113078982  22.4339074436227 41  22 41  C 9.68000000000001 41  0 31.98  0 20.5  Z " fill-rule="nonzero" fill="#ffffff" stroke="none" transform="matrix(1 0 0 1 358 154 )" />
    <path d="M 0 20.5  C 0 9.02000000000001  9.68000000000001 0  22 0  C 34.32 0  44 9.02000000000001  44 20.5  C 44 31.5756771548061  34.9898471773746 40.3615840674987  23.2915905520074 40.9667205150043  C 22.8645401480937 40.9888113078982  22.4339074436227 41  22 41  C 9.68000000000001 41  0 31.98  0 20.5  Z " stroke-width="2" stroke="#797979" fill="none" transform="matrix(1 0 0 1 358 154 )" mask="url(#clip5135)" />
  </g>
</svg>