<?xml version="1.0" encoding="utf-8"?>
<svg version="1.1" xmlns:xlink="http://www.w3.org/1999/xlink" width="26px" height="26px" xmlns="http://www.w3.org/2000/svg">
  <g transform="matrix(1 0 0 1 -118 -67 )">
    <path d="M 131 67  C 138.28 67  144 72.72  144 80  C 144 87.28  138.28 93  131 93  C 123.72 93  118 87.28  118 80  C 118 72.72  123.72 67  131 67  Z " fill-rule="nonzero" fill="#f59a23" stroke="none" fill-opacity="0" />
    <path d="M 131 67.5  C 138 67.5  143.5 73  143.5 80  C 143.5 87  138 92.5  131 92.5  C 124 92.5  118.5 87  118.5 80  C 118.5 73  124 67.5  131 67.5  Z " stroke-width="1" stroke="#797979" fill="none" />
  </g>
</svg>