<?xml version="1.0" encoding="utf-8"?>
<svg version="1.1" xmlns:xlink="http://www.w3.org/1999/xlink" width="35px" height="35px" xmlns="http://www.w3.org/2000/svg">
  <g transform="matrix(1 0 0 1 -262 -156 )">
    <path d="M 279.5 156  C 289.3 156  297 163.7  297 173.5  C 297 183.3  289.3 191  279.5 191  C 269.7 191  262 183.3  262 173.5  C 262 163.7  269.7 156  279.5 156  Z " fill-rule="nonzero" fill="#ffffff" stroke="none" />
    <path d="M 279.5 156.5  C 289.02 156.5  296.5 163.98  296.5 173.5  C 296.5 183.02  289.02 190.5  279.5 190.5  C 269.98 190.5  262.5 183.02  262.5 173.5  C 262.5 163.98  269.98 156.5  279.5 156.5  Z " stroke-width="1" stroke="#797979" fill="none" />
  </g>
</svg>