<?xml version="1.0" encoding="utf-8"?>
<svg version="1.1" xmlns:xlink="http://www.w3.org/1999/xlink" width="72px" height="72px" xmlns="http://www.w3.org/2000/svg">
  <g transform="matrix(1 0 0 1 -150 -124 )">
    <path d="M 186 124  C 206.16 124  222 139.84  222 160  C 222 180.16  206.16 196  186 196  C 165.84 196  150 180.16  150 160  C 150 139.84  165.84 124  186 124  Z " fill-rule="nonzero" fill="#ffffff" stroke="none" />
    <path d="M 186 124.5  C 205.88 124.5  221.5 140.12  221.5 160  C 221.5 179.88  205.88 195.5  186 195.5  C 166.12 195.5  150.5 179.88  150.5 160  C 150.5 140.12  166.12 124.5  186 124.5  Z " stroke-width="1" stroke="#797979" fill="none" />
  </g>
</svg>