<?xml version="1.0" encoding="utf-8"?>
<svg version="1.1" xmlns:xlink="http://www.w3.org/1999/xlink" width="46px" height="45px" xmlns="http://www.w3.org/2000/svg">
  <g transform="matrix(1 0 0 1 -53 -184 )">
    <path d="M 76 184  C 88.88 184  99 193.9  99 206.5  C 99 219.1  88.88 229  76 229  C 63.12 229  53 219.1  53 206.5  C 53 193.9  63.12 184  76 184  Z " fill-rule="nonzero" fill="#ffffff" stroke="none" />
    <path d="M 76 184.5  C 88.6 184.5  98.5 194.18  98.5 206.5  C 98.5 218.82  88.6 228.5  76 228.5  C 63.4 228.5  53.5 218.82  53.5 206.5  C 53.5 194.18  63.4 184.5  76 184.5  Z " stroke-width="1" stroke="#797979" fill="none" />
  </g>
</svg>