<?xml version="1.0" encoding="utf-8"?>
<svg version="1.1" xmlns:xlink="http://www.w3.org/1999/xlink" width="24px" height="30px" xmlns="http://www.w3.org/2000/svg">
  <defs>
    <mask fill="white" id="clip2018">
      <path d="M 0 29  L 0 0  L 23 0  L 23 13.425925925924  L 23 29  L 0 29  Z " fill-rule="evenodd" />
    </mask>
  </defs>
  <g transform="matrix(1 0 0 1 -145 -94 )">
    <path d="M 0 29  L 0 0  L 23 0  L 23 13.425925925924  L 23 29  L 0 29  Z M 0.5889696476913 28.2573860963892  L 22.4110303523087 0.742613903610788  L 12.4849148418486 13.2581508515823  L 5.43381995133925 22.1486618004853  L 0.5889696476913 28.2573860963892  Z " fill-rule="nonzero" fill="#f2f2f2" stroke="none" transform="matrix(1 0 0 1 145 94 )" />
    <path d="M 0 29  L 0 0  L 23 0  L 23 13.425925925924  L 23 29  L 0 29  Z " stroke-width="2" stroke="#797979" fill="none" transform="matrix(1 0 0 1 145 94 )" mask="url(#clip2018)" />
    <path d="M 22.4110303523087 0.742613903610788  L 12.4849148418486 13.2581508515823  L 5.43381995133925 22.1486618004853  L 0.5889696476913 28.2573860963892  M 0.5889696476913 0.742613903610788  L 22.4110303523087 28.2573860963892  " stroke-width="1" stroke="#797979" fill="none" transform="matrix(1 0 0 1 145 94 )" mask="url(#clip2018)" />
  </g>
</svg>