<?xml version="1.0" encoding="utf-8"?>
<svg version="1.1" xmlns:xlink="http://www.w3.org/1999/xlink" width="81px" height="81px" xmlns="http://www.w3.org/2000/svg">
  <g transform="matrix(1 0 0 1 -167 -46 )">
    <path d="M 207.5 46  C 230.18 46  248 63.82  248 86.5  C 248 109.18  230.18 127  207.5 127  C 184.82 127  167 109.18  167 86.5  C 167 63.82  184.82 46  207.5 46  Z " fill-rule="nonzero" fill="#ffffff" stroke="none" />
    <path d="M 207.5 46.5  C 229.9 46.5  247.5 64.1  247.5 86.5  C 247.5 108.9  229.9 126.5  207.5 126.5  C 185.1 126.5  167.5 108.9  167.5 86.5  C 167.5 64.1  185.1 46.5  207.5 46.5  Z " stroke-width="1" stroke="#797979" fill="none" />
  </g>
</svg>