<?xml version="1.0" encoding="utf-8"?>
<svg version="1.1" xmlns:xlink="http://www.w3.org/1999/xlink" width="35px" height="34px" xmlns="http://www.w3.org/2000/svg">
  <g transform="matrix(1 0 0 1 -350 -302 )">
    <path d="M 367.5 302  C 377.3 302  385 309.48  385 319  C 385 328.52  377.3 336  367.5 336  C 357.7 336  350 328.52  350 319  C 350 309.48  357.7 302  367.5 302  Z " fill-rule="nonzero" fill="#ffff00" stroke="none" />
    <path d="M 367.5 302.5  C 377.02 302.5  384.5 309.76  384.5 319  C 384.5 328.24  377.02 335.5  367.5 335.5  C 357.98 335.5  350.5 328.24  350.5 319  C 350.5 309.76  357.98 302.5  367.5 302.5  Z " stroke-width="1" stroke="#797979" fill="none" />
  </g>
</svg>