<?xml version="1.0" encoding="utf-8"?>
<svg version="1.1" xmlns:xlink="http://www.w3.org/1999/xlink" width="35px" height="34px" xmlns="http://www.w3.org/2000/svg">
  <g transform="matrix(1 0 0 1 -502 -302 )">
    <path d="M 519.5 302  C 529.3 302  537 309.48  537 319  C 537 328.52  529.3 336  519.5 336  C 509.7 336  502 328.52  502 319  C 502 309.48  509.7 302  519.5 302  Z " fill-rule="nonzero" fill="#d9001b" stroke="none" />
    <path d="M 519.5 302.5  C 529.02 302.5  536.5 309.76  536.5 319  C 536.5 328.24  529.02 335.5  519.5 335.5  C 509.98 335.5  502.5 328.24  502.5 319  C 502.5 309.76  509.98 302.5  519.5 302.5  Z " stroke-width="1" stroke="#797979" fill="none" />
  </g>
</svg>