<?xml version="1.0" encoding="utf-8"?>
<svg version="1.1" xmlns:xlink="http://www.w3.org/1999/xlink" width="35px" height="34px" xmlns="http://www.w3.org/2000/svg">
  <g transform="matrix(1 0 0 1 -452 -302 )">
    <path d="M 469.5 302  C 479.3 302  487 309.48  487 319  C 487 328.52  479.3 336  469.5 336  C 459.7 336  452 328.52  452 319  C 452 309.48  459.7 302  469.5 302  Z " fill-rule="nonzero" fill="#b8741a" stroke="none" />
    <path d="M 469.5 302.5  C 479.02 302.5  486.5 309.76  486.5 319  C 486.5 328.24  479.02 335.5  469.5 335.5  C 459.98 335.5  452.5 328.24  452.5 319  C 452.5 309.76  459.98 302.5  469.5 302.5  Z " stroke-width="1" stroke="#797979" fill="none" />
  </g>
</svg>