<?xml version="1.0" encoding="utf-8"?>
<svg version="1.1" xmlns:xlink="http://www.w3.org/1999/xlink" width="35px" height="34px" xmlns="http://www.w3.org/2000/svg">
  <g transform="matrix(1 0 0 1 -605 -302 )">
    <path d="M 622.5 302  C 632.3 302  640 309.48  640 319  C 640 328.52  632.3 336  622.5 336  C 612.7 336  605 328.52  605 319  C 605 309.48  612.7 302  622.5 302  Z " fill-rule="nonzero" fill="#6d000e" stroke="none" />
    <path d="M 622.5 302.5  C 632.02 302.5  639.5 309.76  639.5 319  C 639.5 328.24  632.02 335.5  622.5 335.5  C 612.98 335.5  605.5 328.24  605.5 319  C 605.5 309.76  612.98 302.5  622.5 302.5  Z " stroke-width="1" stroke="#797979" fill="none" />
  </g>
</svg>