<?xml version="1.0" encoding="utf-8"?>
<svg version="1.1" xmlns:xlink="http://www.w3.org/1999/xlink" width="35px" height="34px" xmlns="http://www.w3.org/2000/svg">
  <g transform="matrix(1 0 0 1 -553 -302 )">
    <path d="M 570.5 302  C 580.3 302  588 309.48  588 319  C 588 328.52  580.3 336  570.5 336  C 560.7 336  553 328.52  553 319  C 553 309.48  560.7 302  570.5 302  Z " fill-rule="nonzero" fill="#a30014" stroke="none" />
    <path d="M 570.5 302.5  C 580.02 302.5  587.5 309.76  587.5 319  C 587.5 328.24  580.02 335.5  570.5 335.5  C 560.98 335.5  553.5 328.24  553.5 319  C 553.5 309.76  560.98 302.5  570.5 302.5  Z " stroke-width="1" stroke="#797979" fill="none" />
  </g>
</svg>