<?xml version="1.0" encoding="utf-8"?>
<svg version="1.1" xmlns:xlink="http://www.w3.org/1999/xlink" width="109px" height="107px" xmlns="http://www.w3.org/2000/svg">
  <g transform="matrix(1 0 0 1 -410 -282 )">
    <path d="M 464.5 282  C 495.02 282  519 305.54  519 335.5  C 519 365.46  495.02 389  464.5 389  C 433.98 389  410 365.46  410 335.5  C 410 305.54  433.98 282  464.5 282  Z " fill-rule="nonzero" fill="#ffffff" stroke="none" />
    <path d="M 464.5 282.5  C 494.74 282.5  518.5 305.82  518.5 335.5  C 518.5 365.18  494.74 388.5  464.5 388.5  C 434.26 388.5  410.5 365.18  410.5 335.5  C 410.5 305.82  434.26 282.5  464.5 282.5  Z " stroke-width="1" stroke="#797979" fill="none" />
  </g>
</svg>