<?xml version="1.0" encoding="utf-8"?>
<svg version="1.1" xmlns:xlink="http://www.w3.org/1999/xlink" width="113px" height="109px" xmlns="http://www.w3.org/2000/svg">
  <g transform="matrix(1 0 0 1 -141 -270 )">
    <path d="M 197.5 270  C 229.14 270  254 293.98  254 324.5  C 254 355.02  229.14 379  197.5 379  C 165.86 379  141 355.02  141 324.5  C 141 293.98  165.86 270  197.5 270  Z " fill-rule="nonzero" fill="#ffffff" stroke="none" />
    <path d="M 197.5 270.5  C 228.86 270.5  253.5 294.26  253.5 324.5  C 253.5 354.74  228.86 378.5  197.5 378.5  C 166.14 378.5  141.5 354.74  141.5 324.5  C 141.5 294.26  166.14 270.5  197.5 270.5  Z " stroke-width="1" stroke="#797979" fill="none" />
  </g>
</svg>