<?xml version="1.0" encoding="utf-8"?>
<svg version="1.1" xmlns:xlink="http://www.w3.org/1999/xlink" width="53px" height="53px" xmlns="http://www.w3.org/2000/svg">
  <g transform="matrix(1 0 0 1 -258 -122 )">
    <path d="M 284.5 122  C 299.34 122  311 133.66  311 148.5  C 311 163.34  299.34 175  284.5 175  C 269.66 175  258 163.34  258 148.5  C 258 133.66  269.66 122  284.5 122  Z " fill-rule="nonzero" fill="#d9001b" stroke="none" />
    <path d="M 284.5 122.5  C 299.06 122.5  310.5 133.94  310.5 148.5  C 310.5 163.06  299.06 174.5  284.5 174.5  C 269.94 174.5  258.5 163.06  258.5 148.5  C 258.5 133.94  269.94 122.5  284.5 122.5  Z " stroke-width="1" stroke="#797979" fill="none" />
  </g>
</svg>